<?xml version="1.0" encoding="UTF-8" standalone="no"?>
<svg xmlns:svg="http://www.w3.org/2000/svg" xmlns="http://www.w3.org/2000/svg" xmlns:xlink="http://www.w3.org/1999/xlink" version="1.0" width="350" height="350">
  <g transform="translate(-30.37247,-11.064778)">
    <path d="M 87.05446,226.34258 L 162.84026,225.78698 M 83.078066,144.36711 L 167.66687,227.76244 M 83.078068,224.36711 L 167.66687,307.76244 M 247.05446,226.34258 L 322.84026,225.78698 M 165.09467,229.06257 L 165.65027,304.84837 M 85.09467,147.44314 L 85.65027,223.22894 M 247.05446,306.34258 L 322.84026,305.78698 M 245.09467,229.06257 L 245.65027,304.84837 M 325.09467,229.06257 L 325.65027,304.84837" style="fill:none;fill-rule:evenodd;stroke:#000000;stroke-width:4;stroke-linecap:butt;stroke-linejoin:miter;stroke-miterlimit:4;stroke-dasharray:none;stroke-opacity:0.88627451" />
    <path d="M 86.751996,66.342579 L 158.16532,65.786979 M 167.98564,226.34258 L 243.77144,225.78698 M 90.738679,306.34258 L 166.52448,305.78698 M 247.05446,66.342579 L 322.84026,65.786979 M 247.05446,146.34258 L 322.84026,145.78698 M 245.09467,69.710342 L 245.65027,145.49614" style="fill:none;fill-rule:evenodd;stroke:#ff1010;stroke-width:8;stroke-linecap:round;stroke-linejoin:miter;stroke-miterlimit:4;stroke-dasharray:4, 4;stroke-dashoffset:0;stroke-opacity:1" />
    <g>
      <path d="M 104.67398,66.064777 C 104.67398,76.72471 96.0324,85.36629 85.37247,85.36629 C 74.71254,85.36629 66.07096,76.72471 66.07096,66.064777 C 66.07096,55.404847 74.71254,46.763267 85.37247,46.763267 C 96.0324,46.763267 104.67398,55.404847 104.67398,66.064777 z" id="vertex" style="fill:#007fff;fill-opacity:1;fill-rule:evenodd;stroke:#000070;stroke-width:3.75;stroke-miterlimit:4;stroke-dasharray:none;stroke-dashoffset:0;stroke-opacity:1" />
      <use xlink:href="#vertex" transform="translate(80,0)" />
      <use xlink:href="#vertex" transform="translate(160,160)" />
      <use xlink:href="#vertex" transform="translate(160,80)" />
      <use xlink:href="#vertex" transform="translate(80,80)" />
      <use xlink:href="#vertex" transform="translate(240,80)" />
      <use xlink:href="#vertex" transform="translate(160,240)" />
      <use xlink:href="#vertex" transform="translate(0,240)" />
      <use xlink:href="#vertex" transform="translate(240,0)" />
      <use xlink:href="#vertex" transform="translate(160,0)" />
      <use xlink:href="#vertex" transform="translate(240,240)" />
      <use xlink:href="#vertex" transform="translate(0,160)" />
      <use xlink:href="#vertex" transform="translate(80,240)" />
      <use xlink:href="#vertex" transform="translate(80,160)" />
      <use xlink:href="#vertex" transform="translate(0,80)" />
      <use xlink:href="#vertex" transform="translate(240,160)" />
    </g>
  </g>
</svg>

